# xmcd
#
# Track frame offsets:
#	150
#	13355
#	25987
#	40180
#	54082
#	69579
#	82181
#	93784
#	106459
#	118734
#	133201
#	144698
#	158485
#	172596
#	184418
#	197280
#	207912
#	220956
#	232633
#	246642
#	258324
#	269122
#	283020
#	293402
#	306484
#
# Disc length: 4264 seconds
#
# Revision: 1
# Processed by: cddbd v1.5.2PL0 Copyright (c) Steve Scherf et al.
# Submitted via: EasyCDDAExtractor 16.0.6.1
#
DISCID=7210a619
DTITLE=Various Artist - The History of Rhythm and Blues - 1942-1952 - Cd 02
DYEAR=2012
DGENRE=R&B
TTITLE0=Arthur Crudup - That's Alright
TTITLE1=Big Joe Williams - Baby Please Don't Go
TTITLE2=Johnny Otis - Midnight in the Barrel House
TTITLE3=Jay McShann - Louie's Guitar Boogie
TTITLE4=Arthur Smith - Guitar Boogie
TTITLE5=Hank Williams - Move it on Over
TTITLE6=Lightnin' Hopkins - Let Me Play with Your Poodle
TTITLE7=Sonny Boy Williamson - Shake that Boogie
TTITLE8=Muddy Waters - I Can't Be Satisfied
TTITLE9=John Lee Hooker - Boogie Chillen
TTITLE10=Jazz Gillum - You Got to Run Me Down
TTITLE11=T-Bone Walker - Call It Stormy Monday
TTITLE12=Pee Wee Crayton - Blues After Hours
TTITLE13=Paul Williams - The Twister
TTITLE14=Big Jay McNeely - Deacon's Hop
TTITLE15=Roy Milton - The Hucklebuck
TTITLE16=James Von Streeter - Landslide
TTITLE17=Louis Jordan - Pettin' and Pokin'
TTITLE18=Big Three Trio - After While
TTITLE19=Trumpeteers - Milky White Way
TTITLE20=Stars of Harmony - Rough and Rocky Road
TTITLE21=Dixiaires - Friends, Let Me Tell You About Jesus
TTITLE22=Jubalaires - St. Louis Blues
TTITLE23=The Ravens - Write Me a Letter
TTITLE24=The Orioles - It's Too Soon to Know
EXTD=
EXTT0=
EXTT1=
EXTT2=
EXTT3=
EXTT4=
EXTT5=
EXTT6=
EXTT7=
EXTT8=
EXTT9=
EXTT10=
EXTT11=
EXTT12=
EXTT13=
EXTT14=
EXTT15=
EXTT16=
EXTT17=
EXTT18=
EXTT19=
EXTT20=
EXTT21=
EXTT22=
EXTT23=
EXTT24=
PLAYORDER=
